<?xml version="1.0" encoding="utf-8"?>
<!-- Generator: Adobe Illustrator 19.0.1, SVG Export Plug-In . SVG Version: 6.00 Build 0)  -->
<svg version="1.1" baseProfile="tiny" id="Layer_1" xmlns="http://www.w3.org/2000/svg" xmlns:xlink="http://www.w3.org/1999/xlink"
	 x="0px" y="0px" viewBox="0 0 437.4 246" xml:space="preserve">
<g>
	<path fill="#E92744" d="M150.8,121.2c0,9.7-0.9,18.6-2.6,26.5c-1.7,8-4.4,14.8-8.1,20.5c-3.7,5.7-8.3,10.1-13.9,13.2
		c-5.6,3.1-12.1,4.7-19.7,4.7s-14.1-1.6-19.7-4.7c-5.6-3.1-10.2-7.5-13.9-13.2c-3.7-5.7-6.4-12.5-8.2-20.5c-1.8-8-2.7-16.8-2.7-26.5
		c0-9.7,0.9-18.6,2.7-26.6c1.8-8,4.5-14.9,8.2-20.6c3.7-5.7,8.3-10.1,13.9-13.3c5.6-3.2,12.1-4.8,19.7-4.8s14.1,1.6,19.7,4.8
		c5.6,3.2,10.2,7.6,13.9,13.3c3.7,5.7,6.4,12.6,8.1,20.6C150,102.6,150.8,111.5,150.8,121.2z M133.6,121.2c0-7.6-0.5-14.5-1.4-20.7
		c-1-6.2-2.5-11.6-4.7-16.1s-4.9-8-8.4-10.5c-3.4-2.5-7.6-3.8-12.5-3.8c-4.9,0-9.1,1.3-12.5,3.8c-3.4,2.5-6.2,6-8.4,10.5
		c-2.2,4.5-3.8,9.9-4.8,16.1c-1,6.2-1.5,13.1-1.5,20.7c0,7.6,0.5,14.5,1.5,20.7c1,6.2,2.6,11.6,4.8,16c2.2,4.4,4.9,7.9,8.4,10.3
		c3.4,2.5,7.6,3.7,12.5,3.7c4.9,0,9.1-1.2,12.5-3.7c3.4-2.5,6.2-5.9,8.4-10.3c2.2-4.4,3.7-9.8,4.7-16
		C133.1,135.6,133.6,128.7,133.6,121.2z"/>
	<path fill="#E92744" d="M176,58.7h16.2v124.7H176V58.7z"/>
	<path fill="#E92744" d="M222.5,60.5c8.4-2,16.6-3.1,24.7-3.1c6.2,0,11.9,0.8,17,2.2c5.1,1.5,9.5,3.8,13.1,7
		c3.7,3.2,6.5,7.3,8.5,12.3s3,11.1,3,18.2c0,7.2-1,13.4-3.1,18.5c-2,5.1-4.9,9.2-8.6,12.4c-3.7,3.2-8.2,5.5-13.4,6.9
		c-5.2,1.4-11,2.2-17.4,2.2h-7.6v46.3h-16.2V60.5z M238.7,123h6.5c4.1,0,7.8-0.5,11.1-1.4c3.3-0.9,6.1-2.4,8.4-4.4
		c2.3-2,4-4.7,5.2-7.9c1.2-3.2,1.8-7.3,1.8-12.1c0-4.8-0.6-8.8-1.8-12.1c-1.2-3.3-2.9-5.9-5-7.9s-4.7-3.4-7.6-4.2
		c-3-0.8-6.3-1.3-9.9-1.3c-3.1,0-6,0.2-8.6,0.5V123z"/>
	<path fill="#E92744" d="M342.3,58.7c2.9,9,5.7,18.1,8.5,27.3c2.8,9.2,5.6,18.8,8.3,28.9c2.7,10.1,5.4,20.8,8.1,32
		c2.7,11.3,5.4,23.5,8.1,36.6h-16.2c-0.9-5.4-1.9-10.7-2.9-16c-1-5.3-2-10.6-3.1-15.8h-39.4c-1.2,5.3-2.3,10.6-3.3,15.8
		c-1,5.3-1.9,10.6-2.9,16H292c2.6-13.1,5.4-25.3,8.1-36.5c2.8-11.3,5.5-22,8.2-32c2.7-10.1,5.5-19.7,8.3-28.9
		c2.8-9.2,5.7-18.3,8.6-27.3H342.3z M333.5,77.1c-2.9,10-5.8,20-8.5,30.1c-2.8,10.1-5.4,20.4-7.9,30.9h32.7
		c-2.4-10.6-5-20.9-7.7-30.9C339.2,97.1,336.4,87.1,333.5,77.1z"/>
</g>
<g>
	<g>
		<path fill="#FFFFFF" d="M0,0h56.2v18.2H21.8v205.5h34.5V242H0V0z"/>
	</g>
	<g>
		<path fill="#FFFFFF" d="M437.4,242h-56.2v-18.2h34.5V18.2h-34.5V0h56.2V242z"/>
	</g>
</g>
<g>
	<path fill="#A6E22A" d="M66.8,227.9c0.3-0.2,0.7-0.4,1.3-0.7c0.6-0.2,1.3-0.3,2.1-0.3c0.9,0,1.7,0.2,2.4,0.5
		c0.7,0.3,1.3,0.8,1.8,1.3c0.5,0.6,0.8,1.3,1.1,2.1s0.4,1.7,0.4,2.6c0,1-0.1,1.9-0.4,2.7c-0.3,0.8-0.7,1.5-1.2,2
		c-0.5,0.6-1.2,1-1.9,1.3s-1.6,0.4-2.5,0.4c-1.1,0-2-0.1-2.7-0.2c-0.7-0.1-1.3-0.3-1.8-0.5v-18l1.6-0.3V227.9z M66.8,238.1
		c0.2,0.1,0.6,0.2,1.1,0.2c0.5,0.1,1.1,0.1,1.9,0.1c1.3,0,2.4-0.4,3.2-1.3s1.2-2.1,1.2-3.8c0-0.7-0.1-1.3-0.2-2
		c-0.1-0.6-0.4-1.2-0.7-1.6c-0.3-0.5-0.7-0.8-1.3-1.1c-0.5-0.3-1.2-0.4-1.9-0.4c-0.4,0-0.7,0-1.1,0.1c-0.3,0.1-0.6,0.2-0.9,0.3
		c-0.3,0.1-0.5,0.2-0.8,0.4s-0.4,0.2-0.5,0.4V238.1z"/>
	<path fill="#A6E22A" d="M82.7,239.8c-0.5-1-1-2-1.5-3.1c-0.5-1.1-0.9-2.1-1.4-3.2c-0.4-1.1-0.8-2.2-1.2-3.2s-0.7-2.1-0.9-3.2h1.7
		c0.2,0.8,0.4,1.6,0.7,2.5c0.3,0.9,0.6,1.8,0.9,2.7c0.3,0.9,0.7,1.9,1.1,2.9s0.9,2,1.4,2.9c0.4-1,0.7-1.9,0.9-2.8s0.5-1.8,0.8-2.6
		c0.2-0.9,0.5-1.8,0.7-2.7s0.4-1.9,0.7-3h1.6c-0.5,2.3-1.1,4.6-1.8,6.8c-0.6,2.2-1.4,4.2-2.1,6c-0.3,0.7-0.6,1.3-0.9,1.9
		c-0.3,0.5-0.7,0.9-1.1,1.3s-0.9,0.6-1.4,0.7c-0.5,0.2-1.1,0.2-1.8,0.2c-0.4,0-0.8,0-1.1-0.1s-0.5-0.2-0.6-0.2l0.3-1.3
		c0.1,0,0.2,0.1,0.5,0.2s0.6,0.1,0.9,0.1c0.4,0,0.9,0,1.2-0.1s0.7-0.3,1-0.5c0.3-0.2,0.5-0.5,0.8-0.9
		C82.2,240.8,82.4,240.4,82.7,239.8z"/>
	<path fill="#A6E22A" d="M103.8,228.4c-0.4,0.4-0.9,1-1.4,1.7c-0.6,0.7-1.2,1.6-1.9,2.5c-0.7,0.9-1.3,1.9-2,2.8
		c-0.7,1-1.2,1.9-1.7,2.8h7.3v1.3H95v-1.1c0.4-0.8,0.9-1.7,1.5-2.6c0.6-0.9,1.2-1.9,1.9-2.8s1.3-1.8,1.9-2.6s1.2-1.5,1.6-2h-6.6
		v-1.3h8.5V228.4z"/>
	<path fill="#A6E22A" d="M109,223.4c0,0.4-0.1,0.7-0.3,0.9c-0.2,0.2-0.5,0.3-0.8,0.3c-0.3,0-0.6-0.1-0.8-0.3
		c-0.2-0.2-0.3-0.5-0.3-0.9c0-0.4,0.1-0.7,0.3-0.9c0.2-0.2,0.5-0.3,0.8-0.3c0.3,0,0.6,0.1,0.8,0.3C108.8,222.7,109,223,109,223.4z
		 M108.6,239.5H107v-12.4h1.6V239.5z"/>
	<path fill="#A6E22A" d="M112.7,227.6c0.5-0.1,1.1-0.3,1.8-0.4c0.7-0.2,1.7-0.2,2.9-0.2c1.6,0,2.7,0.5,3.4,1.4
		c0.1-0.1,0.2-0.2,0.5-0.3c0.2-0.2,0.5-0.3,0.9-0.5c0.4-0.2,0.8-0.3,1.2-0.4c0.5-0.1,1-0.2,1.6-0.2c0.9,0,1.7,0.1,2.3,0.4
		c0.6,0.3,1,0.7,1.4,1.2c0.3,0.5,0.5,1.1,0.6,1.8c0.1,0.7,0.2,1.5,0.2,2.3v6.9h-1.6v-6.4c0-0.8,0-1.5-0.1-2.1
		c-0.1-0.6-0.2-1.1-0.4-1.5c-0.2-0.4-0.5-0.7-0.9-0.9c-0.4-0.2-0.9-0.3-1.6-0.3c-0.5,0-0.9,0-1.3,0.1s-0.7,0.2-1,0.3
		c-0.3,0.1-0.5,0.3-0.7,0.4s-0.3,0.2-0.4,0.3c0.1,0.4,0.3,0.9,0.3,1.4c0.1,0.5,0.1,1.1,0.1,1.6v7.1h-1.6v-6.4c0-0.8,0-1.5-0.1-2.1
		c-0.1-0.6-0.2-1.1-0.4-1.5c-0.2-0.4-0.5-0.7-0.9-0.9c-0.4-0.2-0.9-0.3-1.6-0.3c-0.8,0-1.4,0-1.9,0.1c-0.5,0.1-0.9,0.2-1,0.2v10.9
		h-1.6V227.6z"/>
	<path fill="#A6E22A" d="M133.4,227.6c0.5-0.1,1.1-0.3,1.8-0.4c0.7-0.2,1.7-0.2,2.9-0.2c1.6,0,2.7,0.5,3.4,1.4
		c0.1-0.1,0.2-0.2,0.5-0.3c0.2-0.2,0.5-0.3,0.9-0.5c0.4-0.2,0.8-0.3,1.2-0.4c0.5-0.1,1-0.2,1.6-0.2c0.9,0,1.7,0.1,2.3,0.4
		c0.6,0.3,1,0.7,1.4,1.2c0.3,0.5,0.5,1.1,0.6,1.8c0.1,0.7,0.2,1.5,0.2,2.3v6.9h-1.6v-6.4c0-0.8,0-1.5-0.1-2.1
		c-0.1-0.6-0.2-1.1-0.4-1.5c-0.2-0.4-0.5-0.7-0.9-0.9c-0.4-0.2-0.9-0.3-1.6-0.3c-0.5,0-0.9,0-1.3,0.1s-0.7,0.2-1,0.3
		c-0.3,0.1-0.5,0.3-0.7,0.4s-0.3,0.2-0.4,0.3c0.1,0.4,0.3,0.9,0.3,1.4c0.1,0.5,0.1,1.1,0.1,1.6v7.1H141v-6.4c0-0.8,0-1.5-0.1-2.1
		c-0.1-0.6-0.2-1.1-0.4-1.5c-0.2-0.4-0.5-0.7-0.9-0.9c-0.4-0.2-0.9-0.3-1.6-0.3c-0.8,0-1.4,0-1.9,0.1c-0.5,0.1-0.9,0.2-1,0.2v10.9
		h-1.6V227.6z"/>
	<path fill="#A6E22A" d="M153.4,233.3c0-1.1,0.2-2,0.5-2.8c0.3-0.8,0.7-1.5,1.2-2c0.5-0.5,1.1-0.9,1.7-1.2c0.6-0.3,1.3-0.4,2-0.4
		c1.5,0,2.7,0.5,3.6,1.5s1.4,2.5,1.4,4.6c0,0.1,0,0.3,0,0.4c0,0.1,0,0.2,0,0.4h-8.7c0,1.5,0.4,2.7,1.1,3.5s1.8,1.2,3.4,1.2
		c0.8,0,1.5-0.1,2-0.2c0.5-0.2,0.9-0.3,1.1-0.4l0.3,1.3c-0.2,0.1-0.6,0.3-1.3,0.5c-0.6,0.2-1.3,0.3-2.2,0.3c-1.1,0-2-0.2-2.8-0.5
		c-0.8-0.3-1.4-0.8-1.9-1.3c-0.5-0.6-0.9-1.3-1.1-2.1S153.4,234.3,153.4,233.3z M162.2,232.3c0-1.3-0.3-2.3-0.9-3
		c-0.6-0.7-1.4-1.1-2.4-1.1c-0.6,0-1.1,0.1-1.5,0.3c-0.4,0.2-0.8,0.5-1.2,0.9c-0.3,0.4-0.6,0.8-0.8,1.3c-0.2,0.5-0.3,1-0.3,1.6
		H162.2z"/>
	<path fill="#A6E22A" d="M171.5,226.9c0.5,0,1,0,1.5,0.1c0.5,0.1,0.8,0.2,0.9,0.2l-0.3,1.3c-0.1-0.1-0.4-0.1-0.8-0.2
		c-0.4-0.1-0.9-0.1-1.5-0.1c-0.7,0-1.2,0-1.6,0.1c-0.4,0.1-0.7,0.2-0.8,0.2v10.9h-1.6v-11.8c0.4-0.2,1-0.4,1.7-0.5
		C169.7,227,170.5,226.9,171.5,226.9z"/>
	<path fill="#A6E22A" d="M176.3,227.6c0.5-0.1,1.1-0.3,1.8-0.4c0.7-0.2,1.7-0.2,2.9-0.2c1.6,0,2.7,0.5,3.4,1.4
		c0.1-0.1,0.2-0.2,0.5-0.3c0.2-0.2,0.5-0.3,0.9-0.5c0.4-0.2,0.8-0.3,1.2-0.4c0.5-0.1,1-0.2,1.6-0.2c0.9,0,1.7,0.1,2.3,0.4
		c0.6,0.3,1,0.7,1.4,1.2c0.3,0.5,0.5,1.1,0.6,1.8c0.1,0.7,0.2,1.5,0.2,2.3v6.9h-1.6v-6.4c0-0.8,0-1.5-0.1-2.1
		c-0.1-0.6-0.2-1.1-0.4-1.5c-0.2-0.4-0.5-0.7-0.9-0.9c-0.4-0.2-0.9-0.3-1.6-0.3c-0.5,0-0.9,0-1.3,0.1s-0.7,0.2-1,0.3
		c-0.3,0.1-0.5,0.3-0.7,0.4s-0.3,0.2-0.4,0.3c0.1,0.4,0.3,0.9,0.3,1.4c0.1,0.5,0.1,1.1,0.1,1.6v7.1h-1.6v-6.4c0-0.8,0-1.5-0.1-2.1
		c-0.1-0.6-0.2-1.1-0.4-1.5c-0.2-0.4-0.5-0.7-0.9-0.9c-0.4-0.2-0.9-0.3-1.6-0.3c-0.8,0-1.4,0-1.9,0.1c-0.5,0.1-0.9,0.2-1,0.2v10.9
		h-1.6V227.6z"/>
	<path fill="#A6E22A" d="M200.8,226.8c0.8,0,1.5,0.1,2.1,0.3c0.6,0.2,1,0.6,1.4,1c0.4,0.4,0.6,0.9,0.8,1.5c0.2,0.6,0.2,1.2,0.2,1.8
		v7.8c-0.2,0-0.4,0.1-0.7,0.2c-0.3,0.1-0.7,0.1-1.1,0.2s-0.8,0.1-1.3,0.2c-0.5,0-1,0.1-1.5,0.1c-0.7,0-1.3-0.1-1.8-0.2
		c-0.6-0.1-1-0.4-1.4-0.7c-0.4-0.3-0.7-0.7-1-1.2s-0.3-1.1-0.3-1.8c0-0.7,0.1-1.2,0.4-1.7c0.3-0.5,0.6-0.9,1.1-1.2
		c0.5-0.3,1-0.5,1.7-0.7c0.6-0.1,1.3-0.2,2.1-0.2c0.2,0,0.5,0,0.7,0c0.2,0,0.5,0.1,0.7,0.1c0.2,0,0.4,0.1,0.6,0.1
		c0.2,0,0.3,0.1,0.3,0.1v-0.8c0-0.4,0-0.9-0.1-1.3c-0.1-0.4-0.2-0.8-0.4-1.1c-0.2-0.3-0.5-0.6-0.9-0.8c-0.4-0.2-0.9-0.3-1.5-0.3
		c-0.9,0-1.6,0.1-2,0.2c-0.4,0.1-0.8,0.2-1,0.3l-0.2-1.4c0.3-0.1,0.7-0.2,1.3-0.4C199.3,226.9,200,226.8,200.8,226.8z M200.9,238.4
		c0.6,0,1.1,0,1.6-0.1c0.5,0,0.8-0.1,1.2-0.2v-4.4c-0.2-0.1-0.5-0.2-0.8-0.3s-0.9-0.1-1.6-0.1c-0.4,0-0.8,0-1.2,0.1
		c-0.4,0.1-0.8,0.2-1.2,0.4c-0.4,0.2-0.6,0.4-0.9,0.8c-0.2,0.3-0.3,0.7-0.3,1.3c0,0.5,0.1,0.9,0.2,1.2c0.2,0.3,0.4,0.6,0.6,0.8
		c0.3,0.2,0.6,0.3,1,0.4C200,238.4,200.4,238.4,200.9,238.4z"/>
	<path fill="#A6E22A" d="M209.2,227.6c0.5-0.1,1.1-0.3,1.9-0.4c0.8-0.2,1.7-0.2,2.9-0.2c0.9,0,1.7,0.1,2.4,0.4
		c0.6,0.3,1.1,0.7,1.5,1.2c0.4,0.5,0.6,1.1,0.8,1.8c0.2,0.7,0.2,1.5,0.2,2.3v6.9h-1.6v-6.4c0-0.9-0.1-1.6-0.2-2.2
		c-0.1-0.6-0.3-1.1-0.6-1.5c-0.3-0.4-0.6-0.7-1.1-0.8c-0.5-0.2-1-0.3-1.7-0.3c-0.7,0-1.4,0-1.9,0.1c-0.5,0.1-0.9,0.2-1,0.2v10.9
		h-1.6V227.6z"/>
	<path fill="#A6E22A" d="M237.8,235.2c0.4-0.5,0.7-1.1,0.9-1.8c0.2-0.7,0.4-1.3,0.4-2l1.3,0.2c-0.1,0.8-0.3,1.6-0.5,2.4
		c-0.3,0.8-0.7,1.5-1.2,2.2c0.6,0.7,1.2,1.3,1.7,1.8c0.5,0.5,0.8,1.1,1.1,1.6h-1.8c-0.2-0.4-0.5-0.7-0.8-1.1
		c-0.3-0.4-0.7-0.7-1.1-1.2c-0.6,0.8-1.4,1.4-2.2,1.8c-0.9,0.4-1.9,0.7-3,0.7c-1,0-1.8-0.1-2.5-0.4c-0.7-0.3-1.2-0.6-1.6-1.1
		c-0.4-0.4-0.7-0.9-0.9-1.5c-0.2-0.5-0.3-1-0.3-1.6c0-0.6,0.1-1.2,0.3-1.7s0.5-1,0.8-1.3c0.3-0.4,0.7-0.7,1.2-1
		c0.4-0.3,0.9-0.6,1.4-0.7c-0.7-0.7-1.2-1.3-1.4-2c-0.3-0.6-0.4-1.3-0.4-1.9c0-0.6,0.1-1.2,0.3-1.7c0.2-0.5,0.5-0.9,0.8-1.3
		c0.4-0.3,0.8-0.6,1.3-0.8c0.5-0.2,1-0.3,1.6-0.3c0.6,0,1.1,0.1,1.6,0.3c0.5,0.2,0.9,0.4,1.2,0.7c0.3,0.3,0.6,0.7,0.7,1.1
		c0.2,0.4,0.3,0.9,0.3,1.4c0,0.6-0.1,1.1-0.3,1.6c-0.2,0.5-0.5,0.9-0.8,1.3c-0.3,0.4-0.7,0.7-1.2,1c-0.4,0.3-0.9,0.6-1.4,0.8
		L237.8,235.2z M232.7,238.4c0.9,0,1.8-0.2,2.5-0.5c0.7-0.4,1.3-0.9,1.8-1.5l-4.9-5c-0.3,0.1-0.7,0.3-1,0.5s-0.7,0.4-0.9,0.7
		c-0.3,0.3-0.5,0.7-0.7,1.1c-0.2,0.4-0.3,0.9-0.3,1.5c0,0.4,0.1,0.7,0.2,1.1c0.1,0.4,0.3,0.7,0.6,1s0.6,0.5,1.1,0.7
		C231.5,238.3,232,238.4,232.7,238.4z M235.6,226.1c0-0.6-0.2-1.1-0.6-1.6c-0.4-0.4-1-0.6-1.6-0.6c-0.8,0-1.4,0.2-1.9,0.7
		c-0.4,0.4-0.6,1-0.6,1.8c0,0.6,0.1,1.1,0.4,1.7s0.7,1.1,1.3,1.8c1-0.4,1.7-0.9,2.3-1.5C235.3,227.8,235.6,227,235.6,226.1z"/>
	<path fill="#A6E22A" d="M257.1,228.4c-0.4,0.4-0.9,1-1.4,1.7c-0.6,0.7-1.2,1.6-1.9,2.5c-0.7,0.9-1.3,1.9-2,2.8
		c-0.7,1-1.2,1.9-1.7,2.8h7.3v1.3h-9.1v-1.1c0.4-0.8,0.9-1.7,1.5-2.6s1.2-1.9,1.9-2.8c0.7-0.9,1.3-1.8,1.9-2.6
		c0.6-0.8,1.2-1.5,1.6-2h-6.6v-1.3h8.5V228.4z"/>
	<path fill="#A6E22A" d="M262.2,223.4c0,0.4-0.1,0.7-0.3,0.9c-0.2,0.2-0.5,0.3-0.8,0.3s-0.6-0.1-0.8-0.3c-0.2-0.2-0.3-0.5-0.3-0.9
		c0-0.4,0.1-0.7,0.3-0.9c0.2-0.2,0.5-0.3,0.8-0.3s0.6,0.1,0.8,0.3C262.1,222.7,262.2,223,262.2,223.4z M261.8,239.5h-1.6v-12.4h1.6
		V239.5z"/>
	<path fill="#A6E22A" d="M266,227.6c0.5-0.1,1.1-0.3,1.8-0.4c0.7-0.2,1.7-0.2,2.9-0.2c1.6,0,2.7,0.5,3.4,1.4
		c0.1-0.1,0.2-0.2,0.5-0.3c0.2-0.2,0.5-0.3,0.9-0.5c0.4-0.2,0.8-0.3,1.2-0.4c0.5-0.1,1-0.2,1.6-0.2c0.9,0,1.7,0.1,2.3,0.4
		c0.6,0.3,1,0.7,1.4,1.2s0.5,1.1,0.6,1.8c0.1,0.7,0.2,1.5,0.2,2.3v6.9h-1.6v-6.4c0-0.8,0-1.5-0.1-2.1c-0.1-0.6-0.2-1.1-0.4-1.5
		c-0.2-0.4-0.5-0.7-0.9-0.9c-0.4-0.2-0.9-0.3-1.6-0.3c-0.5,0-0.9,0-1.3,0.1c-0.4,0.1-0.7,0.2-1,0.3c-0.3,0.1-0.5,0.3-0.7,0.4
		s-0.3,0.2-0.4,0.3c0.1,0.4,0.3,0.9,0.3,1.4c0.1,0.5,0.1,1.1,0.1,1.6v7.1h-1.6v-6.4c0-0.8,0-1.5-0.1-2.1c-0.1-0.6-0.2-1.1-0.4-1.5
		c-0.2-0.4-0.5-0.7-0.9-0.9c-0.4-0.2-0.9-0.3-1.6-0.3c-0.8,0-1.4,0-1.9,0.1c-0.5,0.1-0.9,0.2-1,0.2v10.9H266V227.6z"/>
	<path fill="#A6E22A" d="M286.7,227.6c0.5-0.1,1.1-0.3,1.8-0.4c0.7-0.2,1.7-0.2,2.9-0.2c1.6,0,2.7,0.5,3.4,1.4
		c0.1-0.1,0.2-0.2,0.5-0.3c0.2-0.2,0.5-0.3,0.9-0.5c0.4-0.2,0.8-0.3,1.2-0.4c0.5-0.1,1-0.2,1.6-0.2c0.9,0,1.7,0.1,2.3,0.4
		c0.6,0.3,1,0.7,1.4,1.2s0.5,1.1,0.6,1.8c0.1,0.7,0.2,1.5,0.2,2.3v6.9h-1.6v-6.4c0-0.8,0-1.5-0.1-2.1c-0.1-0.6-0.2-1.1-0.4-1.5
		c-0.2-0.4-0.5-0.7-0.9-0.9c-0.4-0.2-0.9-0.3-1.6-0.3c-0.5,0-0.9,0-1.3,0.1c-0.4,0.1-0.7,0.2-1,0.3c-0.3,0.1-0.5,0.3-0.7,0.4
		s-0.3,0.2-0.4,0.3c0.1,0.4,0.3,0.9,0.3,1.4c0.1,0.5,0.1,1.1,0.1,1.6v7.1h-1.6v-6.4c0-0.8,0-1.5-0.1-2.1c-0.1-0.6-0.2-1.1-0.4-1.5
		c-0.2-0.4-0.5-0.7-0.9-0.9c-0.4-0.2-0.9-0.3-1.6-0.3c-0.8,0-1.4,0-1.9,0.1c-0.5,0.1-0.9,0.2-1,0.2v10.9h-1.6V227.6z"/>
	<path fill="#A6E22A" d="M306.6,233.3c0-1.1,0.2-2,0.5-2.8c0.3-0.8,0.7-1.5,1.2-2s1.1-0.9,1.7-1.2c0.6-0.3,1.3-0.4,2-0.4
		c1.5,0,2.7,0.5,3.6,1.5s1.4,2.5,1.4,4.6c0,0.1,0,0.3,0,0.4c0,0.1,0,0.2,0,0.4h-8.7c0,1.5,0.4,2.7,1.1,3.5s1.8,1.2,3.4,1.2
		c0.8,0,1.5-0.1,2-0.2c0.5-0.2,0.9-0.3,1.1-0.4l0.3,1.3c-0.2,0.1-0.6,0.3-1.3,0.5s-1.3,0.3-2.2,0.3c-1.1,0-2-0.2-2.8-0.5
		c-0.8-0.3-1.4-0.8-1.9-1.3c-0.5-0.6-0.9-1.3-1.1-2.1C306.8,235.1,306.6,234.3,306.6,233.3z M315.5,232.3c0-1.3-0.3-2.3-0.9-3
		c-0.6-0.7-1.4-1.1-2.4-1.1c-0.6,0-1.1,0.1-1.5,0.3c-0.4,0.2-0.8,0.5-1.2,0.9c-0.3,0.4-0.6,0.8-0.8,1.3c-0.2,0.5-0.3,1-0.3,1.6
		H315.5z"/>
	<path fill="#A6E22A" d="M324.8,226.9c0.5,0,1,0,1.5,0.1c0.5,0.1,0.8,0.2,0.9,0.2l-0.3,1.3c-0.1-0.1-0.4-0.1-0.8-0.2
		c-0.4-0.1-0.9-0.1-1.5-0.1c-0.7,0-1.2,0-1.6,0.1c-0.4,0.1-0.7,0.2-0.8,0.2v10.9h-1.6v-11.8c0.4-0.2,1-0.4,1.7-0.5
		C322.9,227,323.8,226.9,324.8,226.9z"/>
	<path fill="#A6E22A" d="M329.5,227.6c0.5-0.1,1.1-0.3,1.8-0.4c0.7-0.2,1.7-0.2,2.9-0.2c1.6,0,2.7,0.5,3.4,1.4
		c0.1-0.1,0.2-0.2,0.5-0.3c0.2-0.2,0.5-0.3,0.9-0.5c0.4-0.2,0.8-0.3,1.2-0.4c0.5-0.1,1-0.2,1.6-0.2c0.9,0,1.7,0.1,2.3,0.4
		c0.6,0.3,1,0.7,1.4,1.2s0.5,1.1,0.6,1.8c0.1,0.7,0.2,1.5,0.2,2.3v6.9h-1.6v-6.4c0-0.8,0-1.5-0.1-2.1c-0.1-0.6-0.2-1.1-0.4-1.5
		c-0.2-0.4-0.5-0.7-0.9-0.9c-0.4-0.2-0.9-0.3-1.6-0.3c-0.5,0-0.9,0-1.3,0.1c-0.4,0.1-0.7,0.2-1,0.3c-0.3,0.1-0.5,0.3-0.7,0.4
		s-0.3,0.2-0.4,0.3c0.1,0.4,0.3,0.9,0.3,1.4c0.1,0.5,0.1,1.1,0.1,1.6v7.1h-1.6v-6.4c0-0.8,0-1.5-0.1-2.1c-0.1-0.6-0.2-1.1-0.4-1.5
		c-0.2-0.4-0.5-0.7-0.9-0.9c-0.4-0.2-0.9-0.3-1.6-0.3c-0.8,0-1.4,0-1.9,0.1c-0.5,0.1-0.9,0.2-1,0.2v10.9h-1.6V227.6z"/>
	<path fill="#A6E22A" d="M354,226.8c0.8,0,1.5,0.1,2.1,0.3c0.6,0.2,1,0.6,1.4,1c0.4,0.4,0.6,0.9,0.8,1.5c0.2,0.6,0.2,1.2,0.2,1.8
		v7.8c-0.2,0-0.4,0.1-0.7,0.2s-0.7,0.1-1.1,0.2c-0.4,0.1-0.8,0.1-1.3,0.2s-1,0.1-1.5,0.1c-0.7,0-1.3-0.1-1.8-0.2
		c-0.6-0.1-1-0.4-1.4-0.7c-0.4-0.3-0.7-0.7-1-1.2c-0.2-0.5-0.3-1.1-0.3-1.8c0-0.7,0.1-1.2,0.4-1.7c0.3-0.5,0.6-0.9,1.1-1.2
		c0.5-0.3,1-0.5,1.7-0.7c0.6-0.1,1.3-0.2,2.1-0.2c0.2,0,0.5,0,0.7,0c0.2,0,0.5,0.1,0.7,0.1c0.2,0,0.4,0.1,0.6,0.1
		c0.2,0,0.3,0.1,0.3,0.1v-0.8c0-0.4,0-0.9-0.1-1.3c-0.1-0.4-0.2-0.8-0.4-1.1s-0.5-0.6-0.9-0.8c-0.4-0.2-0.9-0.3-1.5-0.3
		c-0.9,0-1.6,0.1-2,0.2c-0.4,0.1-0.8,0.2-1,0.3l-0.2-1.4c0.3-0.1,0.7-0.2,1.3-0.4C352.5,226.9,353.2,226.8,354,226.8z M354.1,238.4
		c0.6,0,1.1,0,1.6-0.1c0.5,0,0.8-0.1,1.2-0.2v-4.4c-0.2-0.1-0.5-0.2-0.8-0.3c-0.4-0.1-0.9-0.1-1.6-0.1c-0.4,0-0.8,0-1.2,0.1
		c-0.4,0.1-0.8,0.2-1.2,0.4c-0.4,0.2-0.6,0.4-0.9,0.8c-0.2,0.3-0.3,0.7-0.3,1.3c0,0.5,0.1,0.9,0.2,1.2c0.2,0.3,0.4,0.6,0.6,0.8
		c0.3,0.2,0.6,0.3,1,0.4C353.2,238.4,353.6,238.4,354.1,238.4z"/>
	<path fill="#A6E22A" d="M362.4,227.6c0.5-0.1,1.1-0.3,1.9-0.4c0.8-0.2,1.7-0.2,2.9-0.2c0.9,0,1.7,0.1,2.4,0.4
		c0.6,0.3,1.1,0.7,1.5,1.2c0.4,0.5,0.6,1.1,0.8,1.8c0.2,0.7,0.2,1.5,0.2,2.3v6.9h-1.6v-6.4c0-0.9-0.1-1.6-0.2-2.2
		c-0.1-0.6-0.3-1.1-0.6-1.5c-0.3-0.4-0.6-0.7-1.1-0.8c-0.5-0.2-1-0.3-1.7-0.3c-0.7,0-1.4,0-1.9,0.1c-0.5,0.1-0.9,0.2-1,0.2v10.9
		h-1.6V227.6z"/>
</g>
</svg>
