<?xml version="1.0" encoding="utf-8"?>
<!-- Generator: Adobe Illustrator 19.0.1, SVG Export Plug-In . SVG Version: 6.00 Build 0)  -->
<svg version="1.1" id="Laag_1" xmlns="http://www.w3.org/2000/svg" xmlns:xlink="http://www.w3.org/1999/xlink" x="0px" y="0px"
	 viewBox="-244 209 150 34.9" style="enable-background:new -244 209 150 34.9;" xml:space="preserve">
<style type="text/css">
	.st0{fill:#FFFFFF;}
</style>
<g>
	<g>
		<path class="st0" d="M-230.4,225.2h-13.4v-3.1l7.1-9.3h-6.4V209h12.5v3.1l-6.9,9.2h7.1C-230.4,221.4-230.4,225.2-230.4,225.2z"/>
		<path class="st0" d="M-223.7,225.2h-5V209h5V225.2z"/>
		<path class="st0" d="M-203.6,225.2h-4.6v-11.6l0,0l-2.9,11.6h-3.2l-3-11.6l0,0v11.6h-3.7V209h6.5l2.3,8.6l0,0l2.2-8.6h6.5
			L-203.6,225.2L-203.6,225.2z"/>
		<path class="st0" d="M-183.4,225.2h-4.6v-11.6l0,0l-2.9,11.6h-3.2l-3-11.6l0,0v11.6h-3.7V209h6.5l2.3,8.6l0,0l2.2-8.6h6.5v16.2
			H-183.4z"/>
		<path class="st0" d="M-168.6,225.2h-12.2V209h12.1v3.7h-7.3v2.4h5.9v3.6h-5.9v2.6h7.3L-168.6,225.2L-168.6,225.2z"/>
		<path class="st0" d="M-161.6,225.2h-5V209h8.2c1.4,0,3,0.2,4.2,1c1.3,0.8,2,2.3,2,3.9c0,2.1-0.9,3.4-2.8,4.3l2.9,7h-5.5l-2.4-6.2
			h-1.6L-161.6,225.2L-161.6,225.2z M-161.6,215.5h1.8c1.1,0,2.4-0.2,2.4-1.6c0-0.5-0.3-1.1-0.8-1.3c-0.4-0.2-0.9-0.2-1.4-0.2h-2
			V215.5L-161.6,215.5z"/>
		<path class="st0" d="M-133,225.2h-4.6v-11.6h-0.1l-2.9,11.6h-3.2l-3-11.6l0,0v11.6h-3.7V209h6.5l2.3,8.6l0,0l2.2-8.6h6.5V225.2z"
			/>
		<path class="st0" d="M-122.1,222h-4.3l-1,3.2h-4l5-16.2h5.2l5.1,16.2h-5.1L-122.1,222z M-122.9,218.5l-1.3-4.7l-1.3,4.7H-122.9z"
			/>
		<path class="st0" d="M-105,225.2l-4.6-7.6l-1.4-2.9l0,0v0.2c0.2,1,0.3,1.6,0.3,2.7v7.5h-4V209h4.7l5.4,9l0,0l-0.3-4.5V209h4v16.2
			H-105z"/>
	</g>
	<g>
		<path class="st0" d="M-230.4,243.9h-13.4v-3.1l7.1-9.3h-6.4v-3.8h12.5v3.1l-6.9,9.2h7.1C-230.4,240.1-230.4,243.9-230.4,243.9z"/>
		<path class="st0" d="M-223.7,243.9h-5v-16.2h5V243.9z"/>
		<path class="st0" d="M-203.6,243.9h-4.6v-11.6l0,0l-2.9,11.6h-3.2l-3-11.6l0,0v11.6h-3.7v-16.2h6.5l2.3,8.6l0,0l2.2-8.6h6.5
			L-203.6,243.9L-203.6,243.9z"/>
		<path class="st0" d="M-183.4,243.9h-4.6v-11.6l0,0l-2.9,11.6h-3.2l-3-11.6l0,0v11.6h-3.7v-16.2h6.5l2.3,8.6l0,0l2.2-8.6h6.5v16.2
			H-183.4z"/>
		<path class="st0" d="M-168.6,243.9h-12.2v-16.2h12.1v3.7h-7.3v2.4h5.9v3.6h-5.9v2.6h7.3L-168.6,243.9L-168.6,243.9z"/>
		<path class="st0" d="M-161.6,243.9h-5v-16.2h8.2c1.4,0,3,0.2,4.2,1c1.3,0.8,2,2.3,2,3.9c0,2.1-0.9,3.4-2.8,4.3l2.9,7h-5.5
			l-2.4-6.2h-1.6L-161.6,243.9L-161.6,243.9z M-161.6,234.3h1.8c1.1,0,2.4-0.2,2.4-1.6c0-0.5-0.3-1.1-0.8-1.3
			c-0.4-0.2-0.9-0.2-1.4-0.2h-2V234.3L-161.6,234.3z"/>
		<path class="st0" d="M-133,243.9h-4.6v-11.6h-0.1l-2.9,11.6h-3.2l-3-11.6l0,0v11.6h-3.7v-16.2h6.5l2.3,8.6l0,0l2.2-8.6h6.5V243.9z
			"/>
		<path class="st0" d="M-122.1,240.7h-4.3l-1,3.2h-4l5-16.2h5.2l5.1,16.2h-5.1L-122.1,240.7z M-122.9,237.2l-1.3-4.7l-1.3,4.7
			H-122.9z"/>
		<path class="st0" d="M-105,243.9l-4.6-7.6l-1.4-2.9l0,0v0.2c0.2,1,0.3,1.6,0.3,2.7v7.5h-4v-16.2h4.7l5.4,9l0,0l-0.3-4.5v-4.5h4
			v16.2h-4.1V243.9z"/>
		<path class="st0" d="M-93.8,243.9h-4.5v-4.3h4.5V243.9z"/>
	</g>
</g>
</svg>
